HIERARCHY
ROOT root
{
	OFFSET 0.000000 0.000000 0.000000
	CHANNELS 6 Xposition Yposition Zposition Zrotation Yrotation Xrotation
	JOINT lhip
	{
		OFFSET 0.058581 -0.082280 -0.017664
		CHANNELS 3 Zrotation Yrotation Xrotation
		JOINT lknee
		{
			OFFSET 0.043451 -0.386469 0.008037
			CHANNELS 3 Zrotation Yrotation Xrotation
			JOINT lankle
			{
				OFFSET -0.014790 -0.426874 -0.037428
				CHANNELS 3 Zrotation Yrotation Xrotation
				JOINT ltoe
				{
					OFFSET 0.041054 -0.060286 0.122042
					CHANNELS 3 Zrotation Yrotation Xrotation
					End Site
					{
						OFFSET 0.000000 0.000000 0.000000
					}
				}
			}
		}
	}
	JOINT rhip
	{
		OFFSET -0.060310 -0.090513 -0.013543
		CHANNELS 3 Zrotation Yrotation Xrotation
		JOINT rknee
		{
			OFFSET -0.043257 -0.383688 -0.004843
			CHANNELS 3 Zrotation Yrotation Xrotation
			JOINT rankle
			{
				OFFSET 0.019056 -0.420046 -0.034562
				CHANNELS 3 Zrotation Yrotation Xrotation
				JOINT rtoe
				{
					OFFSET -0.034840 -0.062106 0.130323
					CHANNELS 3 Zrotation Yrotation Xrotation
					End Site
					{
						OFFSET 0.000000 0.000000 0.000000
					}
				}
			}
		}
	}
	JOINT lowerback
	{
		OFFSET 0.004439 0.124404 -0.038385
		CHANNELS 3 Zrotation Yrotation Xrotation
		JOINT upperback
		{
			OFFSET 0.004488 0.137956 0.026820
			CHANNELS 3 Zrotation Yrotation Xrotation
			JOINT chest
			{
				OFFSET -0.002265 0.056032 0.002855
				CHANNELS 3 Zrotation Yrotation Xrotation
				JOINT lowerneck
				{
					OFFSET -0.013390 0.211636 -0.033468
					CHANNELS 3 Zrotation Yrotation Xrotation
					JOINT upperneck
					{
						OFFSET 0.010113 0.088937 0.050410
						CHANNELS 3 Zrotation Yrotation Xrotation
						End Site
						{
							OFFSET 0.000000 0.000000 0.000000
						}
					}
				}
				JOINT lclavicle
				{
					OFFSET 0.071702 0.114000 -0.018898
					CHANNELS 3 Zrotation Yrotation Xrotation
					JOINT lshoulder
					{
						OFFSET 0.122921 0.045205 -0.019046
						CHANNELS 3 Zrotation Yrotation Xrotation
						JOINT lelbow
						{
							OFFSET 0.255332 -0.015649 -0.022946
							CHANNELS 3 Zrotation Yrotation Xrotation
							JOINT lwrist
							{
								OFFSET 0.265709 0.012698 -0.007375
								CHANNELS 3 Zrotation Yrotation Xrotation
								End Site
								{
									OFFSET 0.000000 0.000000 0.000000
								}
							}
						}
					}
				}
				JOINT rclavicle
				{
					OFFSET -0.082954 0.112472 -0.023707
					CHANNELS 3 Zrotation Yrotation Xrotation
					JOINT rshoulder
					{
						OFFSET -0.113228 0.046853 -0.008472
						CHANNELS 3 Zrotation Yrotation Xrotation
						JOINT relbow
						{
							OFFSET -0.260127 -0.014369 -0.031269
							CHANNELS 3 Zrotation Yrotation Xrotation
							JOINT rwrist
							{
								OFFSET -0.269108 0.006794 -0.006027
								CHANNELS 3 Zrotation Yrotation Xrotation
								End Site
								{
									OFFSET 0.000000 0.000000 0.000000
								}
							}
						}
					}
				}
			}
		}
	}
}
MOTION
Frames: 13
Frame Time: 0.033333
-0.352283 -0.185001 1.002609 -162.066536 6.878303 96.812508 9.908793 1.772475 -25.564562 -5.599181 -8.860493 23.610131 3.446505 2.849694 -9.782191 0.000000 -0.000000 0.000000 -3.313278 -9.834503 -9.925080 -1.619472 -5.904545 12.320682 6.381088 -10.036913 -10.021641 0.000000 -0.000000 0.000000 -5.434876 8.172032 31.593909 -11.289155 -4.880810 -0.951788 -3.693492 -1.446371 0.934848 -9.256312 -4.478894 19.707382 13.153959 3.874293 12.871214 -18.294785 -33.171881 4.911840 -62.736994 -37.212041 25.259383 -8.104795 -23.271650 39.693657 25.600768 -11.321471 9.778421 -9.071290 21.706760 -7.171064 48.712101 3.927208 13.520451 35.984522 62.563534 47.810768 2.042569 11.085109 -66.877930 
-0.351820 -0.185754 1.002797 -161.931353 6.911435 96.873356 9.855349 1.621035 -25.663085 -5.469718 -9.026729 23.549568 3.521786 2.977522 -9.729430 0.000000 -0.000000 0.000000 -3.204086 -9.957542 -9.941469 -1.635568 -5.822776 12.201501 6.412161 -10.038427 -10.069411 0.000000 -0.000000 0.000000 -5.353450 8.184737 31.838265 -11.308571 -5.029847 -1.199329 -3.723030 -1.447033 0.882983 -9.052161 -4.651397 19.782236 13.555952 3.758484 13.106723 -18.082655 -33.396718 4.883023 -62.839105 -37.180072 25.231821 -8.039265 -23.163989 39.588137 25.743909 -11.132428 9.690147 -9.246265 22.070157 -7.282984 49.077355 4.066161 13.738148 34.992183 62.006433 47.418870 2.175999 10.555987 -65.071828 
-0.351377 -0.186271 1.003006 -161.703448 7.013350 97.039280 9.923532 1.453450 -25.821091 -5.299359 -9.098843 23.415904 3.580020 2.934638 -9.699146 0.000000 -0.000000 0.000000 -2.990142 -10.059201 -9.948499 -1.630377 -5.753692 11.946811 6.404908 -10.151843 -10.153988 0.000000 -0.000000 0.000000 -5.266574 8.191938 31.949976 -11.254939 -5.077979 -1.430972 -3.739506 -1.413672 0.887673 -9.020570 -5.049366 19.775411 13.909928 3.633250 13.443537 -18.027956 -33.559219 4.886012 -63.138145 -37.258892 25.240297 -7.915797 -22.844220 39.275856 25.887810 -11.117614 9.869029 -9.242934 22.315741 -7.266119 49.164646 3.843412 13.845892 34.470455 62.015602 47.157892 2.173087 10.296146 -61.808512 
-0.351017 -0.186827 1.003357 -161.408569 7.054623 97.334416 9.920801 1.376907 -26.072662 -5.201874 -9.219921 23.211163 3.582843 2.854726 -9.596082 0.000000 -0.000000 0.000000 -2.779424 -10.159852 -10.046938 -1.695222 -5.770133 11.666482 6.346866 -10.187039 -10.081579 0.000000 -0.000000 0.000000 -5.253458 8.091997 31.946308 -11.260907 -5.187768 -1.668317 -3.766339 -1.316726 0.982440 -9.030342 -5.207329 19.944269 14.238753 3.622543 13.479870 -17.893533 -33.521950 4.746499 -63.701167 -37.361374 25.352569 -7.602679 -22.459272 39.477525 26.008626 -11.018318 9.610887 -9.505941 22.402335 -7.336564 49.460350 3.855903 13.971173 34.210093 61.826175 47.909934 2.293805 10.013334 -59.335335 
-0.350875 -0.187480 1.003681 -161.137234 7.013031 97.651956 9.910616 1.248273 -26.285592 -5.173567 -9.232228 22.850897 3.596298 2.721885 -9.333994 0.000000 -0.000000 0.000000 -2.645691 -10.191968 -10.169883 -1.796782 -5.784038 11.287309 6.253534 -10.302136 -9.956045 0.000000 -0.000000 0.000000 -5.302696 7.976171 31.931152 -11.307562 -5.298397 -1.814382 -3.852784 -1.243140 0.962279 -8.964814 -5.421259 20.113432 14.422406 3.518490 13.636120 -17.743909 -33.366927 4.519223 -64.202272 -37.518991 25.656419 -7.522408 -21.985499 39.631391 26.243778 -10.991017 9.671404 -9.560025 22.449513 -7.248982 49.504664 3.888554 14.225714 34.939275 62.171648 48.969319 1.532569 9.473669 -58.406414 
-0.350984 -0.187461 1.003945 -160.873007 6.973388 97.814257 9.938471 1.052403 -26.294823 -5.159465 -9.231343 22.534339 3.685530 2.564567 -9.096298 0.000000 -0.000000 0.000000 -2.586087 -10.278231 -10.095736 -1.858135 -5.781415 11.003028 6.249281 -10.346807 -9.901283 0.000000 -0.000000 0.000000 -5.287023 7.904457 32.014801 -11.316340 -5.448035 -1.864045 -3.970258 -1.119750 0.908842 -9.148781 -5.444736 20.306853 14.628583 3.313742 13.594420 -17.500162 -33.295813 4.286469 -64.660453 -37.498074 25.708768 -7.508261 -21.627181 40.443243 26.715564 -11.300351 9.504577 -9.526722 22.485486 -7.100934 49.409441 3.860594 14.510223 36.326278 62.847711 52.780369 0.577058 8.549347 -53.254432 
-0.351198 -0.187374 1.003982 -160.645212 6.956726 97.973942 9.922768 0.962462 -26.393456 -5.127519 -9.290827 22.407225 3.675606 2.461626 -8.959226 0.000000 -0.000000 0.000000 -2.589659 -10.239509 -10.073919 -1.849895 -5.856505 10.867276 6.244905 -10.416020 -9.811714 0.000000 -0.000000 0.000000 -5.239334 7.846378 32.037864 -11.381283 -5.480217 -1.936093 -4.040417 -1.097466 0.922088 -9.255975 -5.497364 20.432814 14.622456 3.316429 13.623401 -17.448020 -33.225551 4.179502 -64.963022 -37.443328 25.909498 -7.424111 -21.460213 40.833053 27.101599 -11.266145 9.286691 -9.614851 22.525712 -7.166904 49.170099 3.829701 14.869960 38.657057 63.315658 56.003031 -0.120071 7.863105 -52.278110 
-0.351415 -0.186792 1.003778 -160.545788 6.917534 98.114349 9.987158 0.779256 -26.414062 -5.139728 -9.150812 22.258663 3.825666 2.440329 -8.850637 0.000000 -0.000000 0.000000 -2.616397 -10.356890 -10.064107 -1.846032 -5.796791 10.764322 6.227039 -10.434465 -9.837877 0.000000 -0.000000 0.000000 -5.295871 7.874264 31.922600 -11.421878 -5.619332 -2.004408 -4.160892 -1.002361 1.003015 -9.330277 -5.325356 20.808054 14.796035 3.346505 13.482456 -17.242061 -33.097188 3.939511 -65.227777 -37.205693 25.852653 -7.532823 -21.420847 41.505281 27.891087 -11.227805 9.050157 -9.441528 22.623601 -6.970373 49.024825 3.868805 15.387739 40.088606 63.804420 60.207500 -2.107250 6.447307 -45.062381 
-0.351901 -0.186123 1.003673 -160.424705 6.928530 98.151137 10.061647 0.634197 -26.419922 -5.203332 -9.112783 22.320211 3.981640 2.479840 -8.859124 0.000000 -0.000000 0.000000 -2.634698 -10.531364 -9.986769 -1.801774 -5.803698 10.785080 6.226579 -10.444208 -9.884864 0.000000 -0.000000 0.000000 -5.275830 7.824914 31.874916 -11.428205 -5.783763 -2.035110 -4.287057 -0.914251 1.089939 -9.449968 -5.319880 21.026600 14.847571 3.310449 13.461488 -17.123437 -32.980867 3.720238 -65.317097 -36.877881 25.737690 -7.670947 -21.536554 42.242328 28.483058 -11.108391 8.662810 -9.277229 22.701496 -6.808336 48.862597 3.948168 15.680870 41.865564 64.223997 64.856755 -3.294467 6.480825 -39.299048 
-0.352300 -0.185636 1.003524 -160.448932 6.976087 98.093098 10.205532 0.536030 -26.376565 -5.293558 -8.962083 22.465017 4.095490 2.506485 -8.898696 0.000000 -0.000000 0.000000 -2.643666 -10.623783 -9.929174 -1.766081 -5.751407 10.928353 6.205096 -10.363535 -9.971808 0.000000 -0.000000 0.000000 -5.310354 7.849386 31.784412 -11.401544 -5.846983 -1.871646 -4.394859 -0.878712 1.087025 -9.492047 -5.246001 21.189433 14.828515 3.168839 13.380024 -17.005028 -32.796737 3.552129 -65.429044 -36.676355 25.644510 -7.781841 -21.672996 43.327749 28.371280 -10.685051 7.966343 -9.000884 22.715137 -6.566465 48.814856 4.188675 15.903428 43.160270 64.936717 68.691220 -3.788182 6.717839 -34.239511 
-0.352647 -0.185042 1.003285 -160.477035 7.058207 98.001701 10.357414 0.479476 -26.325791 -5.346893 -8.798556 22.681891 4.247787 2.489473 -9.044907 0.000000 -0.000000 0.000000 -2.626766 -10.667887 -9.891621 -1.732843 -5.804967 11.170416 6.196810 -10.273048 -10.103465 0.000000 -0.000000 0.000000 -5.423555 7.819390 31.706492 -11.304055 -5.900065 -1.761262 -4.408400 -0.785837 1.087116 -9.524094 -5.215718 21.230043 14.820642 2.978371 13.337663 -16.885864 -32.536561 3.310121 -65.669264 -36.559101 25.424744 -7.905577 -21.737462 44.099806 27.957024 -10.373705 7.516054 -8.788714 22.687103 -6.302029 48.717700 4.515585 15.996551 44.190368 65.450684 72.470154 -4.039039 7.521336 -28.776583 
-0.352944 -0.184383 1.003038 -160.526577 7.147229 97.865497 10.439314 0.358475 -26.251196 -5.279472 -8.729288 23.015085 4.363270 2.561136 -9.294193 0.000000 -0.000000 0.000000 -2.616426 -10.677466 -9.798805 -1.675554 -5.754942 11.405377 6.155867 -10.275813 -10.206736 0.000000 -0.000000 0.000000 -5.517368 7.869025 31.631138 -11.233770 -5.945715 -1.647909 -4.376763 -0.773928 1.133498 -9.511508 -5.123620 21.147509 14.744135 2.997626 13.420244 -16.746297 -32.433834 3.306810 -65.665495 -36.533211 25.195670 -8.026842 -21.890113 44.470119 28.017303 -10.300599 7.456313 -8.623977 22.786838 -6.059191 48.283710 4.616290 16.272577 46.742967 65.776215 76.732225 -4.913533 8.222788 -24.735521 
-0.353246 -0.183798 1.002789 -160.581355 7.133107 97.794119 10.705675 0.179485 -26.124561 -5.492913 -8.214704 23.069986 4.728688 2.376088 -9.302357 0.000000 -0.000000 0.000000 -2.707271 -10.802262 -9.784523 -1.634873 -5.718657 11.686259 6.132758 -10.100097 -10.306202 0.000000 -0.000000 0.000000 -5.737759 8.021946 31.340366 -11.037504 -6.074463 -1.236468 -4.381441 -0.733577 1.014462 -9.689445 -5.014294 21.162632 14.899466 3.188822 13.487304 -16.613413 -32.465288 3.177020 -65.604494 -36.178434 24.550577 -8.023865 -22.330893 45.287911 26.329578 -10.383181 7.318944 -8.145876 22.759253 -5.841294 47.458279 4.857414 16.189247 48.856977 67.248159 84.605523 -1.971412 10.375713 -11.950557 
